<svg width="66" height="66" viewBox="0 0 66 66" fill="none" xmlns="http://www.w3.org/2000/svg">
<path d="M13.8349 17.3743C17.6477 12.7122 23.0311 9.60207 28.9744 8.62784C34.9178 7.65362 41.0123 8.88227 46.114 12.0831C51.2157 15.284 54.9735 20.237 56.6822 26.0122C58.3908 31.7874 57.9327 37.9877 55.3938 43.4491C52.8549 48.9104 48.4099 53.2573 42.8932 55.6736C37.3764 58.0899 31.1675 58.4094 25.4318 56.5723C19.6962 54.7351 14.8284 50.8675 11.7423 45.6957C8.65612 40.5238 7.56388 34.4033 8.67059 28.4832L3.45737 21.275C3.2407 20.9808 3.10717 20.6337 3.07076 20.2702C3.03436 19.9066 3.09642 19.5399 3.25044 19.2086C3.40447 18.8773 3.64479 18.5935 3.94621 18.387C4.24763 18.1805 4.59904 18.0589 4.96363 18.0349L13.8349 17.3743Z" fill="#9291E1" stroke="#9291E1" stroke-width="2" stroke-linecap="round" stroke-linejoin="round"/>
<path d="M16.918 39.112C16.6473 39.112 16.4373 39.0373 16.288 38.888C16.148 38.7387 16.078 38.524 16.078 38.244V29.914C16.078 29.6247 16.148 29.4053 16.288 29.256C16.4373 29.0973 16.6287 29.018 16.862 29.018C17.0767 29.018 17.2353 29.06 17.338 29.144C17.45 29.2187 17.5807 29.3493 17.73 29.536L23.092 36.494H22.728V29.872C22.728 29.6013 22.798 29.3913 22.938 29.242C23.0873 29.0927 23.2973 29.018 23.568 29.018C23.8387 29.018 24.044 29.0927 24.184 29.242C24.324 29.3913 24.394 29.6013 24.394 29.872V38.272C24.394 38.5333 24.3287 38.7387 24.198 38.888C24.0673 39.0373 23.89 39.112 23.666 39.112C23.4513 39.112 23.2787 39.07 23.148 38.986C23.0267 38.902 22.8913 38.7667 22.742 38.58L17.394 31.622H17.744V38.244C17.744 38.524 17.674 38.7387 17.534 38.888C17.394 39.0373 17.1887 39.112 16.918 39.112ZM27.5027 39C27.1947 39 26.9567 38.9207 26.7887 38.762C26.63 38.594 26.5507 38.356 26.5507 38.048V30.082C26.5507 29.774 26.63 29.5407 26.7887 29.382C26.9567 29.214 27.1947 29.13 27.5027 29.13H32.5007C32.734 29.13 32.9113 29.1907 33.0327 29.312C33.1633 29.4333 33.2287 29.606 33.2287 29.83C33.2287 30.0633 33.1633 30.2453 33.0327 30.376C32.9113 30.4973 32.734 30.558 32.5007 30.558H28.2727V33.274H32.1927C32.4353 33.274 32.6173 33.3347 32.7387 33.456C32.86 33.5773 32.9207 33.7547 32.9207 33.988C32.9207 34.2213 32.86 34.3987 32.7387 34.52C32.6173 34.6413 32.4353 34.702 32.1927 34.702H28.2727V37.572H32.5007C32.734 37.572 32.9113 37.6327 33.0327 37.754C33.1633 37.8753 33.2287 38.0527 33.2287 38.286C33.2287 38.5193 33.1633 38.6967 33.0327 38.818C32.9113 38.9393 32.734 39 32.5007 39H27.5027ZM38.3352 39.112C38.0832 39.112 37.8778 39.0513 37.7192 38.93C37.5698 38.8087 37.4485 38.6173 37.3552 38.356L34.4292 30.082C34.3265 29.7833 34.3452 29.5313 34.4852 29.326C34.6345 29.1207 34.8818 29.018 35.2272 29.018C35.4792 29.018 35.6752 29.0787 35.8152 29.2C35.9552 29.312 36.0672 29.494 36.1512 29.746L38.6712 37.222H38.1112L40.7432 29.76C40.8365 29.508 40.9532 29.3213 41.0932 29.2C41.2332 29.0787 41.4152 29.018 41.6392 29.018C41.8632 29.018 42.0405 29.0787 42.1712 29.2C42.3018 29.3213 42.4138 29.5127 42.5072 29.774L45.0552 37.222H44.5652L47.1272 29.746C47.2112 29.5033 47.3232 29.3213 47.4632 29.2C47.6032 29.0787 47.7945 29.018 48.0372 29.018C48.3358 29.018 48.5552 29.1207 48.6952 29.326C48.8352 29.5313 48.8538 29.7833 48.7512 30.082L45.7972 38.37C45.7038 38.622 45.5825 38.8087 45.4332 38.93C45.2838 39.0513 45.0832 39.112 44.8312 39.112C44.5792 39.112 44.3785 39.0513 44.2292 38.93C44.0798 38.8087 43.9585 38.6173 43.8652 38.356L41.4292 31.412H41.7512L39.2872 38.37C39.1938 38.622 39.0725 38.8087 38.9232 38.93C38.7832 39.0513 38.5872 39.112 38.3352 39.112Z" fill="white"/>
</svg>
